<?xml version="1.0" encoding="UTF-8"?>
<svg xmlns="http://www.w3.org/2000/svg" version="1.1" viewBox="-10 -10 830 253.827">
  <title>Koch curve</title>
  <g transform="translate(0,233.827) scale(1,-1)">
    <polyline points="0,0 10,0 15,8.66 20,0 30,0 35,8.66 30,17.321 40,17.321 45,25.981 50,17.321 60,17.321 55,8.66 60,-0 70,-0 75,8.66 80,-0 90,-0 95,8.66 90,17.321 100,17.321 105,25.981 100,34.641 90,34.641 95,43.301 90,51.962 100,51.962 105,60.622 110,51.962 120,51.962 125,60.622 120,69.282 130,69.282 135,77.942 140,69.282 150,69.282 145,60.622 150,51.962 160,51.962 165,60.622 170,51.962 180,51.962 175,43.301 180,34.641 170,34.641 165,25.981 170,17.321 180,17.321 175,8.66 180,-0 190,-0 195,8.66 200,-0 210,-0 215,8.66 210,17.321 220,17.321 225,25.981 230,17.321 240,17.321 235,8.66 240,-0 250,-0 255,8.66 260,-0 270,-0 275,8.66 270,17.321 280,17.321 285,25.981 280,34.641 270,34.641 275,43.301 270,51.962 280,51.962 285,60.622 290,51.962 300,51.962 305,60.622 300,69.282 310,69.282 315,77.942 310,86.603 300,86.603 305,95.263 300,103.923 290,103.923 285,95.263 280,103.923 270,103.923 275,112.583 270,121.244 280,121.244 285,129.904 280,138.564 270,138.564 275,147.224 270,155.885 280,155.885 285,164.545 290,155.885 300,155.885 305,164.545 300,173.205 310,173.205 315,181.865 320,173.205 330,173.205 325,164.545 330,155.885 340,155.885 345,164.545 350,155.885 360,155.885 365,164.545 360,173.205 370,173.205 375,181.865 370,190.526 360,190.526 365,199.186 360,207.846 370,207.846 375,216.506 380,207.846 390,207.846 395,216.506 390,225.167 400,225.167 405,233.827 410,225.167 420,225.167 415,216.506 420,207.846 430,207.846 435,216.506 440,207.846 450,207.846 445,199.186 450,190.526 440,190.526 435,181.865 440,173.205 450,173.205 445,164.545 450,155.885 460,155.885 465,164.545 470,155.885 480,155.885 485,164.545 480,173.205 490,173.205 495,181.865 500,173.205 510,173.205 505,164.545 510,155.885 520,155.885 525,164.545 530,155.885 540,155.885 535,147.224 540,138.564 530,138.564 525,129.904 530,121.244 540,121.244 535,112.583 540,103.923 530,103.923 525,95.263 520,103.923 510,103.923 505,95.263 510,86.603 500,86.603 495,77.942 500,69.282 510,69.282 505,60.622 510,51.962 520,51.962 525,60.622 530,51.962 540,51.962 535,43.301 540,34.641 530,34.641 525,25.981 530,17.321 540,17.321 535,8.66 540,-0 550,-0 555,8.66 560,-0 570,-0 575,8.66 570,17.321 580,17.321 585,25.981 590,17.321 600,17.321 595,8.66 600,-0 610,-0 615,8.66 620,-0 630,-0 635,8.66 630,17.321 640,17.321 645,25.981 640,34.641 630,34.641 635,43.301 630,51.962 640,51.962 645,60.622 650,51.962 660,51.962 665,60.622 660,69.282 670,69.282 675,77.942 680,69.282 690,69.282 685,60.622 690,51.962 700,51.962 705,60.622 710,51.962 720,51.962 715,43.301 720,34.641 710,34.641 705,25.981 710,17.321 720,17.321 715,8.66 720,-0 730,-0 735,8.66 740,-0 750,-0 755,8.66 750,17.321 760,17.321 765,25.981 770,17.321 780,17.321 775,8.66 780,-0 790,-0 795,8.66 800,-0 810,-0" stroke="#000" stroke-width="1" fill="none" stroke-linecap="round" stroke-linejoin="round" />
  </g>
</svg>
