<?xml version="1.0" encoding="UTF-8"?>
<svg xmlns="http://www.w3.org/2000/svg" version="1.1" viewBox="-122.341 -10 244.683 380.757">
  <title>Tiny plant</title>
  <g transform="translate(0,360.757) scale(1,-1)">
    <polyline points="0,0 0,6 0,12 0,18 0,24 0,30 0,36 0,42 0,48 0,54 0,60 0,66 0,72 0,78 0,84 0,90 0,96 -2.536,101.438 -5.071,106.876 -7.607,112.314 -10.143,117.751 -12.679,123.189 -15.214,128.627 -17.75,134.065 -20.286,139.503 -24.882,143.359 -29.478,147.216 -34.074,151.073 -38.671,154.93 -44.466,156.483 -50.262,158.036 -56.171,156.994" stroke="#000" stroke-width="1" fill="none" stroke-linecap="round" stroke-linejoin="round" />
    <polyline points="-56.171,156.994 -62.08,155.952" stroke="#000" stroke-width="1" fill="none" stroke-linecap="round" stroke-linejoin="round" />
    <polyline points="-50.262,158.036 -56.057,159.588 -61.853,161.141 -66.449,164.998" stroke="#000" stroke-width="1" fill="none" stroke-linecap="round" stroke-linejoin="round" />
    <polyline points="-66.449,164.998 -71.045,168.855" stroke="#000" stroke-width="1" fill="none" stroke-linecap="round" stroke-linejoin="round" />
    <polyline points="-61.853,161.141 -67.762,160.099" stroke="#000" stroke-width="1" fill="none" stroke-linecap="round" stroke-linejoin="round" />
    <polyline points="-67.762,160.099 -73.671,159.058" stroke="#000" stroke-width="1" fill="none" stroke-linecap="round" stroke-linejoin="round" />
    <polyline points="-38.671,154.93 -43.267,158.786 -47.863,162.643 -52.46,166.5 -57.056,170.357 -59.592,175.794 -62.127,181.232 -66.723,185.089" stroke="#000" stroke-width="1" fill="none" stroke-linecap="round" stroke-linejoin="round" />
    <polyline points="-66.723,185.089 -71.32,188.946" stroke="#000" stroke-width="1" fill="none" stroke-linecap="round" stroke-linejoin="round" />
    <polyline points="-62.127,181.232 -64.663,186.67 -67.199,192.108 -67.199,198.108" stroke="#000" stroke-width="1" fill="none" stroke-linecap="round" stroke-linejoin="round" />
    <polyline points="-67.199,198.108 -67.199,204.108" stroke="#000" stroke-width="1" fill="none" stroke-linecap="round" stroke-linejoin="round" />
    <polyline points="-67.199,192.108 -71.795,195.965" stroke="#000" stroke-width="1" fill="none" stroke-linecap="round" stroke-linejoin="round" />
    <polyline points="-71.795,195.965 -76.391,199.821" stroke="#000" stroke-width="1" fill="none" stroke-linecap="round" stroke-linejoin="round" />
    <polyline points="-57.056,170.357 -62.851,171.909 -68.647,173.462 -74.556,172.421" stroke="#000" stroke-width="1" fill="none" stroke-linecap="round" stroke-linejoin="round" />
    <polyline points="-74.556,172.421 -80.465,171.379" stroke="#000" stroke-width="1" fill="none" stroke-linecap="round" stroke-linejoin="round" />
    <polyline points="-68.647,173.462 -74.442,175.015 -80.238,176.568 -84.834,180.425" stroke="#000" stroke-width="1" fill="none" stroke-linecap="round" stroke-linejoin="round" />
    <polyline points="-84.834,180.425 -89.431,184.282" stroke="#000" stroke-width="1" fill="none" stroke-linecap="round" stroke-linejoin="round" />
    <polyline points="-80.238,176.568 -86.147,175.526" stroke="#000" stroke-width="1" fill="none" stroke-linecap="round" stroke-linejoin="round" />
    <polyline points="-86.147,175.526 -92.056,174.484" stroke="#000" stroke-width="1" fill="none" stroke-linecap="round" stroke-linejoin="round" />
    <polyline points="-20.286,139.503 -22.821,144.941 -25.357,150.378 -27.893,155.816 -30.429,161.254 -32.964,166.692 -35.5,172.13 -38.036,177.568 -40.571,183.006 -40.571,189.006 -40.571,195.006 -40.571,201.006 -40.571,207.006 -43.107,212.443 -45.643,217.881 -50.239,221.738" stroke="#000" stroke-width="1" fill="none" stroke-linecap="round" stroke-linejoin="round" />
    <polyline points="-50.239,221.738 -54.835,225.595" stroke="#000" stroke-width="1" fill="none" stroke-linecap="round" stroke-linejoin="round" />
    <polyline points="-45.643,217.881 -48.178,223.319 -50.714,228.757 -50.714,234.757" stroke="#000" stroke-width="1" fill="none" stroke-linecap="round" stroke-linejoin="round" />
    <polyline points="-50.714,234.757 -50.714,240.757" stroke="#000" stroke-width="1" fill="none" stroke-linecap="round" stroke-linejoin="round" />
    <polyline points="-50.714,228.757 -55.31,232.614" stroke="#000" stroke-width="1" fill="none" stroke-linecap="round" stroke-linejoin="round" />
    <polyline points="-55.31,232.614 -59.907,236.47" stroke="#000" stroke-width="1" fill="none" stroke-linecap="round" stroke-linejoin="round" />
    <polyline points="-40.571,207.006 -40.571,213.006 -40.571,219.006 -40.571,225.006 -40.571,231.006 -38.036,236.443 -35.5,241.881 -35.5,247.881" stroke="#000" stroke-width="1" fill="none" stroke-linecap="round" stroke-linejoin="round" />
    <polyline points="-35.5,247.881 -35.5,253.881" stroke="#000" stroke-width="1" fill="none" stroke-linecap="round" stroke-linejoin="round" />
    <polyline points="-35.5,241.881 -32.964,247.319 -30.429,252.757 -25.832,256.614" stroke="#000" stroke-width="1" fill="none" stroke-linecap="round" stroke-linejoin="round" />
    <polyline points="-25.832,256.614 -21.236,260.47" stroke="#000" stroke-width="1" fill="none" stroke-linecap="round" stroke-linejoin="round" />
    <polyline points="-30.429,252.757 -30.429,258.757" stroke="#000" stroke-width="1" fill="none" stroke-linecap="round" stroke-linejoin="round" />
    <polyline points="-30.429,258.757 -30.429,264.757" stroke="#000" stroke-width="1" fill="none" stroke-linecap="round" stroke-linejoin="round" />
    <polyline points="-40.571,231.006 -43.107,236.443 -45.643,241.881 -50.239,245.738" stroke="#000" stroke-width="1" fill="none" stroke-linecap="round" stroke-linejoin="round" />
    <polyline points="-50.239,245.738 -54.835,249.595" stroke="#000" stroke-width="1" fill="none" stroke-linecap="round" stroke-linejoin="round" />
    <polyline points="-45.643,241.881 -48.178,247.319 -50.714,252.757 -50.714,258.757" stroke="#000" stroke-width="1" fill="none" stroke-linecap="round" stroke-linejoin="round" />
    <polyline points="-50.714,258.757 -50.714,264.757" stroke="#000" stroke-width="1" fill="none" stroke-linecap="round" stroke-linejoin="round" />
    <polyline points="-50.714,252.757 -55.31,256.614" stroke="#000" stroke-width="1" fill="none" stroke-linecap="round" stroke-linejoin="round" />
    <polyline points="-55.31,256.614 -59.907,260.47" stroke="#000" stroke-width="1" fill="none" stroke-linecap="round" stroke-linejoin="round" />
    <polyline points="-40.571,183.006 -45.168,186.862 -49.764,190.719 -54.36,194.576 -58.956,198.432 -64.752,199.985 -70.548,201.538 -76.456,200.496" stroke="#000" stroke-width="1" fill="none" stroke-linecap="round" stroke-linejoin="round" />
    <polyline points="-76.456,200.496 -82.365,199.455" stroke="#000" stroke-width="1" fill="none" stroke-linecap="round" stroke-linejoin="round" />
    <polyline points="-70.548,201.538 -76.343,203.091 -82.139,204.644 -86.735,208.501" stroke="#000" stroke-width="1" fill="none" stroke-linecap="round" stroke-linejoin="round" />
    <polyline points="-86.735,208.501 -91.331,212.358" stroke="#000" stroke-width="1" fill="none" stroke-linecap="round" stroke-linejoin="round" />
    <polyline points="-82.139,204.644 -88.047,203.602" stroke="#000" stroke-width="1" fill="none" stroke-linecap="round" stroke-linejoin="round" />
    <polyline points="-88.047,203.602 -93.956,202.56" stroke="#000" stroke-width="1" fill="none" stroke-linecap="round" stroke-linejoin="round" />
    <polyline points="-58.956,198.432 -63.553,202.289 -68.149,206.146 -72.745,210.003 -77.341,213.859 -79.877,219.297 -82.413,224.735 -87.009,228.592" stroke="#000" stroke-width="1" fill="none" stroke-linecap="round" stroke-linejoin="round" />
    <polyline points="-87.009,228.592 -91.605,232.448" stroke="#000" stroke-width="1" fill="none" stroke-linecap="round" stroke-linejoin="round" />
    <polyline points="-82.413,224.735 -84.949,230.173 -87.484,235.611 -87.484,241.611" stroke="#000" stroke-width="1" fill="none" stroke-linecap="round" stroke-linejoin="round" />
    <polyline points="-87.484,241.611 -87.484,247.611" stroke="#000" stroke-width="1" fill="none" stroke-linecap="round" stroke-linejoin="round" />
    <polyline points="-87.484,235.611 -92.081,239.467" stroke="#000" stroke-width="1" fill="none" stroke-linecap="round" stroke-linejoin="round" />
    <polyline points="-92.081,239.467 -96.677,243.324" stroke="#000" stroke-width="1" fill="none" stroke-linecap="round" stroke-linejoin="round" />
    <polyline points="-77.341,213.859 -83.137,215.412 -88.933,216.965 -94.841,215.923" stroke="#000" stroke-width="1" fill="none" stroke-linecap="round" stroke-linejoin="round" />
    <polyline points="-94.841,215.923 -100.75,214.881" stroke="#000" stroke-width="1" fill="none" stroke-linecap="round" stroke-linejoin="round" />
    <polyline points="-88.933,216.965 -94.728,218.518 -100.524,220.071 -105.12,223.928" stroke="#000" stroke-width="1" fill="none" stroke-linecap="round" stroke-linejoin="round" />
    <polyline points="-105.12,223.928 -109.716,227.784" stroke="#000" stroke-width="1" fill="none" stroke-linecap="round" stroke-linejoin="round" />
    <polyline points="-100.524,220.071 -106.433,219.029" stroke="#000" stroke-width="1" fill="none" stroke-linecap="round" stroke-linejoin="round" />
    <polyline points="-106.433,219.029 -112.341,217.987" stroke="#000" stroke-width="1" fill="none" stroke-linecap="round" stroke-linejoin="round" />
    <polyline points="0,96 0,102 0,108 0,114 0,120 0,126 0,132 0,138 0,144 0,150 0,156 0,162 0,168 0,174 0,180 0,186 0,192 2.536,197.438 5.071,202.876 7.607,208.314 10.143,213.751 12.679,219.189 15.214,224.627 17.75,230.065 20.286,235.503 20.286,241.503 20.286,247.503 20.286,253.503 20.286,259.503 17.75,264.941 15.214,270.378 10.618,274.235" stroke="#000" stroke-width="1" fill="none" stroke-linecap="round" stroke-linejoin="round" />
    <polyline points="10.618,274.235 6.022,278.092" stroke="#000" stroke-width="1" fill="none" stroke-linecap="round" stroke-linejoin="round" />
    <polyline points="15.214,270.378 12.679,275.816 10.143,281.254 10.143,287.254" stroke="#000" stroke-width="1" fill="none" stroke-linecap="round" stroke-linejoin="round" />
    <polyline points="10.143,287.254 10.143,293.254" stroke="#000" stroke-width="1" fill="none" stroke-linecap="round" stroke-linejoin="round" />
    <polyline points="10.143,281.254 5.547,285.111" stroke="#000" stroke-width="1" fill="none" stroke-linecap="round" stroke-linejoin="round" />
    <polyline points="5.547,285.111 0.95,288.968" stroke="#000" stroke-width="1" fill="none" stroke-linecap="round" stroke-linejoin="round" />
    <polyline points="20.286,259.503 20.286,265.503 20.286,271.503 20.286,277.503 20.286,283.503 22.821,288.941 25.357,294.378 25.357,300.378" stroke="#000" stroke-width="1" fill="none" stroke-linecap="round" stroke-linejoin="round" />
    <polyline points="25.357,300.378 25.357,306.378" stroke="#000" stroke-width="1" fill="none" stroke-linecap="round" stroke-linejoin="round" />
    <polyline points="25.357,294.378 27.893,299.816 30.429,305.254 35.025,309.111" stroke="#000" stroke-width="1" fill="none" stroke-linecap="round" stroke-linejoin="round" />
    <polyline points="35.025,309.111 39.621,312.968" stroke="#000" stroke-width="1" fill="none" stroke-linecap="round" stroke-linejoin="round" />
    <polyline points="30.429,305.254 30.429,311.254" stroke="#000" stroke-width="1" fill="none" stroke-linecap="round" stroke-linejoin="round" />
    <polyline points="30.429,311.254 30.429,317.254" stroke="#000" stroke-width="1" fill="none" stroke-linecap="round" stroke-linejoin="round" />
    <polyline points="20.286,283.503 17.75,288.941 15.214,294.378 10.618,298.235" stroke="#000" stroke-width="1" fill="none" stroke-linecap="round" stroke-linejoin="round" />
    <polyline points="10.618,298.235 6.022,302.092" stroke="#000" stroke-width="1" fill="none" stroke-linecap="round" stroke-linejoin="round" />
    <polyline points="15.214,294.378 12.679,299.816 10.143,305.254 10.143,311.254" stroke="#000" stroke-width="1" fill="none" stroke-linecap="round" stroke-linejoin="round" />
    <polyline points="10.143,311.254 10.143,317.254" stroke="#000" stroke-width="1" fill="none" stroke-linecap="round" stroke-linejoin="round" />
    <polyline points="10.143,305.254 5.547,309.111" stroke="#000" stroke-width="1" fill="none" stroke-linecap="round" stroke-linejoin="round" />
    <polyline points="5.547,309.111 0.95,312.968" stroke="#000" stroke-width="1" fill="none" stroke-linecap="round" stroke-linejoin="round" />
    <polyline points="20.286,235.503 22.821,240.941 25.357,246.378 27.893,251.816 30.429,257.254 32.964,262.692 35.5,268.13 38.036,273.568 40.571,279.006 45.168,282.862 49.764,286.719 54.36,290.576 58.956,294.432 61.492,299.87 64.028,305.308 64.028,311.308" stroke="#000" stroke-width="1" fill="none" stroke-linecap="round" stroke-linejoin="round" />
    <polyline points="64.028,311.308 64.028,317.308" stroke="#000" stroke-width="1" fill="none" stroke-linecap="round" stroke-linejoin="round" />
    <polyline points="64.028,305.308 66.564,310.746 69.099,316.184 73.696,320.041" stroke="#000" stroke-width="1" fill="none" stroke-linecap="round" stroke-linejoin="round" />
    <polyline points="73.696,320.041 78.292,323.897" stroke="#000" stroke-width="1" fill="none" stroke-linecap="round" stroke-linejoin="round" />
    <polyline points="69.099,316.184 69.099,322.184" stroke="#000" stroke-width="1" fill="none" stroke-linecap="round" stroke-linejoin="round" />
    <polyline points="69.099,322.184 69.099,328.184" stroke="#000" stroke-width="1" fill="none" stroke-linecap="round" stroke-linejoin="round" />
    <polyline points="58.956,294.432 63.553,298.289 68.149,302.146 72.745,306.003 77.341,309.859 83.137,311.412 88.933,312.965 93.529,316.822" stroke="#000" stroke-width="1" fill="none" stroke-linecap="round" stroke-linejoin="round" />
    <polyline points="93.529,316.822 98.125,320.679" stroke="#000" stroke-width="1" fill="none" stroke-linecap="round" stroke-linejoin="round" />
    <polyline points="88.933,312.965 94.728,314.518 100.524,316.071 106.433,315.029" stroke="#000" stroke-width="1" fill="none" stroke-linecap="round" stroke-linejoin="round" />
    <polyline points="106.433,315.029 112.341,313.987" stroke="#000" stroke-width="1" fill="none" stroke-linecap="round" stroke-linejoin="round" />
    <polyline points="100.524,316.071 105.12,319.928" stroke="#000" stroke-width="1" fill="none" stroke-linecap="round" stroke-linejoin="round" />
    <polyline points="105.12,319.928 109.716,323.784" stroke="#000" stroke-width="1" fill="none" stroke-linecap="round" stroke-linejoin="round" />
    <polyline points="77.341,309.859 79.877,315.297 82.413,320.735 82.413,326.735" stroke="#000" stroke-width="1" fill="none" stroke-linecap="round" stroke-linejoin="round" />
    <polyline points="82.413,326.735 82.413,332.735" stroke="#000" stroke-width="1" fill="none" stroke-linecap="round" stroke-linejoin="round" />
    <polyline points="82.413,320.735 84.949,326.173 87.484,331.611 92.081,335.467" stroke="#000" stroke-width="1" fill="none" stroke-linecap="round" stroke-linejoin="round" />
    <polyline points="92.081,335.467 96.677,339.324" stroke="#000" stroke-width="1" fill="none" stroke-linecap="round" stroke-linejoin="round" />
    <polyline points="87.484,331.611 87.484,337.611" stroke="#000" stroke-width="1" fill="none" stroke-linecap="round" stroke-linejoin="round" />
    <polyline points="87.484,337.611 87.484,343.611" stroke="#000" stroke-width="1" fill="none" stroke-linecap="round" stroke-linejoin="round" />
    <polyline points="40.571,279.006 40.571,285.006 40.571,291.006 40.571,297.006 40.571,303.006 38.036,308.443 35.5,313.881 30.904,317.738" stroke="#000" stroke-width="1" fill="none" stroke-linecap="round" stroke-linejoin="round" />
    <polyline points="30.904,317.738 26.307,321.595" stroke="#000" stroke-width="1" fill="none" stroke-linecap="round" stroke-linejoin="round" />
    <polyline points="35.5,313.881 32.964,319.319 30.429,324.757 30.429,330.757" stroke="#000" stroke-width="1" fill="none" stroke-linecap="round" stroke-linejoin="round" />
    <polyline points="30.429,330.757 30.429,336.757" stroke="#000" stroke-width="1" fill="none" stroke-linecap="round" stroke-linejoin="round" />
    <polyline points="30.429,324.757 25.832,328.614" stroke="#000" stroke-width="1" fill="none" stroke-linecap="round" stroke-linejoin="round" />
    <polyline points="25.832,328.614 21.236,332.47" stroke="#000" stroke-width="1" fill="none" stroke-linecap="round" stroke-linejoin="round" />
    <polyline points="40.571,303.006 40.571,309.006 40.571,315.006 40.571,321.006 40.571,327.006 43.107,332.443 45.643,337.881 45.643,343.881" stroke="#000" stroke-width="1" fill="none" stroke-linecap="round" stroke-linejoin="round" />
    <polyline points="45.643,343.881 45.643,349.881" stroke="#000" stroke-width="1" fill="none" stroke-linecap="round" stroke-linejoin="round" />
    <polyline points="45.643,337.881 48.178,343.319 50.714,348.757 55.31,352.614" stroke="#000" stroke-width="1" fill="none" stroke-linecap="round" stroke-linejoin="round" />
    <polyline points="55.31,352.614 59.907,356.47" stroke="#000" stroke-width="1" fill="none" stroke-linecap="round" stroke-linejoin="round" />
    <polyline points="50.714,348.757 50.714,354.757" stroke="#000" stroke-width="1" fill="none" stroke-linecap="round" stroke-linejoin="round" />
    <polyline points="50.714,354.757 50.714,360.757" stroke="#000" stroke-width="1" fill="none" stroke-linecap="round" stroke-linejoin="round" />
    <polyline points="40.571,327.006 38.036,332.443 35.5,337.881 30.904,341.738" stroke="#000" stroke-width="1" fill="none" stroke-linecap="round" stroke-linejoin="round" />
    <polyline points="30.904,341.738 26.307,345.595" stroke="#000" stroke-width="1" fill="none" stroke-linecap="round" stroke-linejoin="round" />
    <polyline points="35.5,337.881 32.964,343.319 30.429,348.757 30.429,354.757" stroke="#000" stroke-width="1" fill="none" stroke-linecap="round" stroke-linejoin="round" />
    <polyline points="30.429,354.757 30.429,360.757" stroke="#000" stroke-width="1" fill="none" stroke-linecap="round" stroke-linejoin="round" />
    <polyline points="30.429,348.757 25.832,352.614" stroke="#000" stroke-width="1" fill="none" stroke-linecap="round" stroke-linejoin="round" />
    <polyline points="25.832,352.614 21.236,356.47" stroke="#000" stroke-width="1" fill="none" stroke-linecap="round" stroke-linejoin="round" />
    <polyline points="0,192 -2.536,197.438 -5.071,202.876 -7.607,208.314 -10.143,213.751 -12.679,219.189 -15.214,224.627 -17.75,230.065 -20.286,235.503 -24.882,239.359 -29.478,243.216 -34.074,247.073 -38.671,250.93 -44.466,252.483 -50.262,254.036 -56.171,252.994" stroke="#000" stroke-width="1" fill="none" stroke-linecap="round" stroke-linejoin="round" />
    <polyline points="-56.171,252.994 -62.08,251.952" stroke="#000" stroke-width="1" fill="none" stroke-linecap="round" stroke-linejoin="round" />
    <polyline points="-50.262,254.036 -56.057,255.588 -61.853,257.141 -66.449,260.998" stroke="#000" stroke-width="1" fill="none" stroke-linecap="round" stroke-linejoin="round" />
    <polyline points="-66.449,260.998 -71.045,264.855" stroke="#000" stroke-width="1" fill="none" stroke-linecap="round" stroke-linejoin="round" />
    <polyline points="-61.853,257.141 -67.762,256.099" stroke="#000" stroke-width="1" fill="none" stroke-linecap="round" stroke-linejoin="round" />
    <polyline points="-67.762,256.099 -73.671,255.058" stroke="#000" stroke-width="1" fill="none" stroke-linecap="round" stroke-linejoin="round" />
    <polyline points="-38.671,250.93 -43.267,254.786 -47.863,258.643 -52.46,262.5 -57.056,266.357 -59.592,271.794 -62.127,277.232 -66.723,281.089" stroke="#000" stroke-width="1" fill="none" stroke-linecap="round" stroke-linejoin="round" />
    <polyline points="-66.723,281.089 -71.32,284.946" stroke="#000" stroke-width="1" fill="none" stroke-linecap="round" stroke-linejoin="round" />
    <polyline points="-62.127,277.232 -64.663,282.67 -67.199,288.108 -67.199,294.108" stroke="#000" stroke-width="1" fill="none" stroke-linecap="round" stroke-linejoin="round" />
    <polyline points="-67.199,294.108 -67.199,300.108" stroke="#000" stroke-width="1" fill="none" stroke-linecap="round" stroke-linejoin="round" />
    <polyline points="-67.199,288.108 -71.795,291.965" stroke="#000" stroke-width="1" fill="none" stroke-linecap="round" stroke-linejoin="round" />
    <polyline points="-71.795,291.965 -76.391,295.821" stroke="#000" stroke-width="1" fill="none" stroke-linecap="round" stroke-linejoin="round" />
    <polyline points="-57.056,266.357 -62.851,267.909 -68.647,269.462 -74.556,268.421" stroke="#000" stroke-width="1" fill="none" stroke-linecap="round" stroke-linejoin="round" />
    <polyline points="-74.556,268.421 -80.465,267.379" stroke="#000" stroke-width="1" fill="none" stroke-linecap="round" stroke-linejoin="round" />
    <polyline points="-68.647,269.462 -74.442,271.015 -80.238,272.568 -84.834,276.425" stroke="#000" stroke-width="1" fill="none" stroke-linecap="round" stroke-linejoin="round" />
    <polyline points="-84.834,276.425 -89.431,280.282" stroke="#000" stroke-width="1" fill="none" stroke-linecap="round" stroke-linejoin="round" />
    <polyline points="-80.238,272.568 -86.147,271.526" stroke="#000" stroke-width="1" fill="none" stroke-linecap="round" stroke-linejoin="round" />
    <polyline points="-86.147,271.526 -92.056,270.484" stroke="#000" stroke-width="1" fill="none" stroke-linecap="round" stroke-linejoin="round" />
    <polyline points="-20.286,235.503 -22.821,240.941 -25.357,246.378 -27.893,251.816 -30.429,257.254 -32.964,262.692 -35.5,268.13 -38.036,273.568 -40.571,279.006 -40.571,285.006 -40.571,291.006 -40.571,297.006 -40.571,303.006 -43.107,308.443 -45.643,313.881 -50.239,317.738" stroke="#000" stroke-width="1" fill="none" stroke-linecap="round" stroke-linejoin="round" />
    <polyline points="-50.239,317.738 -54.835,321.595" stroke="#000" stroke-width="1" fill="none" stroke-linecap="round" stroke-linejoin="round" />
    <polyline points="-45.643,313.881 -48.178,319.319 -50.714,324.757 -50.714,330.757" stroke="#000" stroke-width="1" fill="none" stroke-linecap="round" stroke-linejoin="round" />
    <polyline points="-50.714,330.757 -50.714,336.757" stroke="#000" stroke-width="1" fill="none" stroke-linecap="round" stroke-linejoin="round" />
    <polyline points="-50.714,324.757 -55.31,328.614" stroke="#000" stroke-width="1" fill="none" stroke-linecap="round" stroke-linejoin="round" />
    <polyline points="-55.31,328.614 -59.907,332.47" stroke="#000" stroke-width="1" fill="none" stroke-linecap="round" stroke-linejoin="round" />
    <polyline points="-40.571,303.006 -40.571,309.006 -40.571,315.006 -40.571,321.006 -40.571,327.006 -38.036,332.443 -35.5,337.881 -35.5,343.881" stroke="#000" stroke-width="1" fill="none" stroke-linecap="round" stroke-linejoin="round" />
    <polyline points="-35.5,343.881 -35.5,349.881" stroke="#000" stroke-width="1" fill="none" stroke-linecap="round" stroke-linejoin="round" />
    <polyline points="-35.5,337.881 -32.964,343.319 -30.429,348.757 -25.832,352.614" stroke="#000" stroke-width="1" fill="none" stroke-linecap="round" stroke-linejoin="round" />
    <polyline points="-25.832,352.614 -21.236,356.47" stroke="#000" stroke-width="1" fill="none" stroke-linecap="round" stroke-linejoin="round" />
    <polyline points="-30.429,348.757 -30.429,354.757" stroke="#000" stroke-width="1" fill="none" stroke-linecap="round" stroke-linejoin="round" />
    <polyline points="-30.429,354.757 -30.429,360.757" stroke="#000" stroke-width="1" fill="none" stroke-linecap="round" stroke-linejoin="round" />
    <polyline points="-40.571,327.006 -43.107,332.443 -45.643,337.881 -50.239,341.738" stroke="#000" stroke-width="1" fill="none" stroke-linecap="round" stroke-linejoin="round" />
    <polyline points="-50.239,341.738 -54.835,345.595" stroke="#000" stroke-width="1" fill="none" stroke-linecap="round" stroke-linejoin="round" />
    <polyline points="-45.643,337.881 -48.178,343.319 -50.714,348.757 -50.714,354.757" stroke="#000" stroke-width="1" fill="none" stroke-linecap="round" stroke-linejoin="round" />
    <polyline points="-50.714,354.757 -50.714,360.757" stroke="#000" stroke-width="1" fill="none" stroke-linecap="round" stroke-linejoin="round" />
    <polyline points="-50.714,348.757 -55.31,352.614" stroke="#000" stroke-width="1" fill="none" stroke-linecap="round" stroke-linejoin="round" />
    <polyline points="-55.31,352.614 -59.907,356.47" stroke="#000" stroke-width="1" fill="none" stroke-linecap="round" stroke-linejoin="round" />
    <polyline points="-40.571,279.006 -45.168,282.862 -49.764,286.719 -54.36,290.576 -58.956,294.432 -64.752,295.985 -70.548,297.538 -76.456,296.496" stroke="#000" stroke-width="1" fill="none" stroke-linecap="round" stroke-linejoin="round" />
    <polyline points="-76.456,296.496 -82.365,295.455" stroke="#000" stroke-width="1" fill="none" stroke-linecap="round" stroke-linejoin="round" />
    <polyline points="-70.548,297.538 -76.343,299.091 -82.139,300.644 -86.735,304.501" stroke="#000" stroke-width="1" fill="none" stroke-linecap="round" stroke-linejoin="round" />
    <polyline points="-86.735,304.501 -91.331,308.358" stroke="#000" stroke-width="1" fill="none" stroke-linecap="round" stroke-linejoin="round" />
    <polyline points="-82.139,300.644 -88.047,299.602" stroke="#000" stroke-width="1" fill="none" stroke-linecap="round" stroke-linejoin="round" />
    <polyline points="-88.047,299.602 -93.956,298.56" stroke="#000" stroke-width="1" fill="none" stroke-linecap="round" stroke-linejoin="round" />
    <polyline points="-58.956,294.432 -63.553,298.289 -68.149,302.146 -72.745,306.003 -77.341,309.859 -79.877,315.297 -82.413,320.735 -87.009,324.592" stroke="#000" stroke-width="1" fill="none" stroke-linecap="round" stroke-linejoin="round" />
    <polyline points="-87.009,324.592 -91.605,328.448" stroke="#000" stroke-width="1" fill="none" stroke-linecap="round" stroke-linejoin="round" />
    <polyline points="-82.413,320.735 -84.949,326.173 -87.484,331.611 -87.484,337.611" stroke="#000" stroke-width="1" fill="none" stroke-linecap="round" stroke-linejoin="round" />
    <polyline points="-87.484,337.611 -87.484,343.611" stroke="#000" stroke-width="1" fill="none" stroke-linecap="round" stroke-linejoin="round" />
    <polyline points="-87.484,331.611 -92.081,335.467" stroke="#000" stroke-width="1" fill="none" stroke-linecap="round" stroke-linejoin="round" />
    <polyline points="-92.081,335.467 -96.677,339.324" stroke="#000" stroke-width="1" fill="none" stroke-linecap="round" stroke-linejoin="round" />
    <polyline points="-77.341,309.859 -83.137,311.412 -88.933,312.965 -94.841,311.923" stroke="#000" stroke-width="1" fill="none" stroke-linecap="round" stroke-linejoin="round" />
    <polyline points="-94.841,311.923 -100.75,310.881" stroke="#000" stroke-width="1" fill="none" stroke-linecap="round" stroke-linejoin="round" />
    <polyline points="-88.933,312.965 -94.728,314.518 -100.524,316.071 -105.12,319.928" stroke="#000" stroke-width="1" fill="none" stroke-linecap="round" stroke-linejoin="round" />
    <polyline points="-105.12,319.928 -109.716,323.784" stroke="#000" stroke-width="1" fill="none" stroke-linecap="round" stroke-linejoin="round" />
    <polyline points="-100.524,316.071 -106.433,315.029" stroke="#000" stroke-width="1" fill="none" stroke-linecap="round" stroke-linejoin="round" />
    <polyline points="-106.433,315.029 -112.341,313.987" stroke="#000" stroke-width="1" fill="none" stroke-linecap="round" stroke-linejoin="round" />
  </g>
</svg>
